<svg xmlns="http://www.w3.org/2000/svg" viewBox="0 0 498.33 177.3"><defs><style>.cls-1{fill:#fff;}</style></defs><title>rave_white</title><g id="Layer_2" data-name="Layer 2"><g id="Layer_1-2" data-name="Layer 1"><path class="cls-1" d="M49.29,167.25v5.23H43.47c-8,0-10.36-.41-13.23-20.74L20.51,91.8H17.22v58.26c0,12.78,1.12,17.19,7.56,17.19v5.23H0v-5.23c6.44,0,7.56-4.41,7.56-17.19V27.25C7.56,14.46,6.44,10.06,0,10.06V4.82H22.82c12.74,0,19,15.09,19,42.75C41.86,79.43,33.6,88.65,25.2,91v.63c4,2.51,6.93,8,9.94,26.61l5.67,34.16C42.91,164.73,44.94,167.25,49.29,167.25ZM19,82.36c5.53,0,13.09-5.44,13.09-35.41,0-22.22-4-32.7-9.59-32.7-2,0-3.78,1.26-5.25,3.77V82.36Z"/><path class="cls-1" d="M103,167.25v5.23H79.66v-5.23c6.44,0,6.51-4,5.18-16.14l-3.15-28.72H64.61l-3.08,28.72c-1.33,12.15-1.12,16.14,5.32,16.14v5.23H51v-5.23c4.34,0,5.95-2.94,7.42-16.14L74.55,0h4.2l16.8,151.11C97,164.31,98.7,167.25,103,167.25ZM80.64,113,73.08,44.22h-.21L65.59,113Z"/><path class="cls-1" d="M119.56,133.08,130.9,26.2c1.33-12.16,1.19-16.14-5.25-16.14V4.82H141.4v5.24c-4.34,0-6,2.93-7.42,16.14L118,177.3h-4.2L96.88,26.2C95.41,13,93.73,10.06,89.39,10.06V4.82h23.45v5.24c-6.44,0-6.58,4-5.25,16.14l11.76,106.88Z"/><path class="cls-1" d="M182.42,11.32l1.4,34.37-1.75.63c-1.12-26.83-2.73-32.07-7-32.07H160.72V79.64h8.33c4.27,0,5.74-3.56,5.74-24.73h1.75V82l-.07,5,.07,27h-1.75c0-21.17-1.47-24.94-5.74-24.94h-8.33v62c0,9.85.56,11.94,3.29,11.94h12c4.27,0,6.3-6.91,9.24-38.56L187,126l-3.78,40.45-.56,6.07H143.5v-5.23c6.44,0,7.56-4.41,7.56-17.19V27.25c0-12.79-1.12-17.19-7.56-17.19V4.82h38.64Z"/><path class="cls-1" d="M189.49,88.65c0-48.41,8.33-88,22.82-88s22.82,39.61,22.82,88-8.26,88-22.82,88S189.49,137.06,189.49,88.65Zm35.07-3.35C223,29.76,217.35,7.34,210,9.22c-7.28,2.1-11.55,26.83-9.94,82.58s7.14,78.17,14.56,76.07C222,166,226.17,141.05,224.56,85.3Z"/><path class="cls-1" d="M259.91,10.06c-6.44,0-7.56,4.4-7.56,17.19V148.38c0,12.58.91,14.67,4.69,14.67h9.52c4.27,0,6.23-7.12,9.1-40.24l1.68,1.26-3.64,42.55-.49,5.86H235.13v-5.23c6.44,0,7.56-4.41,7.56-17.19V27.25c0-12.79-1.12-17.19-7.56-17.19V4.82h24.78Z"/><path class="cls-1" d="M309.75,10.06V4.82H328v5.24c-6.44,0-7.56,4.4-7.56,17.19V122c0,26.19-3.08,54.7-17.08,54.7-13.79,0-21.35-20.12-21.35-56.8V27.25c0-12.79-1.12-17.19-7.56-17.19V4.82h24.78v5.24c-6.44,0-7.56,4.4-7.56,17.19V122c0,32.48,4.34,45.27,12.88,45.27,7.63,0,12.74-11.95,12.74-45.27V27.25C317.31,14.46,316.19,10.06,309.75,10.06Z"/><path class="cls-1" d="M373.87,45.9l-1.75.42c-.7-27-2.24-32.07-6.51-32.07h-8.75V150.06c0,12.78,1.12,17.19,7.56,17.19v5.23H339.64v-5.23c6.44,0,7.56-4.41,7.56-17.19V14.25h-8.68c-4.27,0-5.88,5-6.58,32.07l-1.75-.42.91-34.58.14-6.5h41.58l.14,6.5Z"/><path class="cls-1" d="M375.69,10.06V4.82h24.78v5.24c-6.44,0-7.56,4.4-7.56,17.19V150.06c0,12.78,1.12,17.19,7.56,17.19v5.23H375.69v-5.23c6.44,0,7.56-4.41,7.56-17.19V27.25C383.25,14.46,382.13,10.06,375.69,10.06Z"/><path class="cls-1" d="M400.47,88.65c0-48.41,8.33-88,22.82-88s22.82,39.61,22.82,88-8.26,88-22.82,88S400.47,137.06,400.47,88.65Zm35.07-3.35c-1.61-55.54-7.21-78-14.56-76.08-7.28,2.1-11.55,26.83-9.94,82.58s7.14,78.17,14.56,76.07C433,166,437.15,141.05,435.54,85.3Z"/><path class="cls-1" d="M498.33,10.06c-6.44,0-7.56,4.4-7.56,17.19V177.3h-4.2L456.82,32.07v118c0,12.78,1.12,17.19,7.56,17.19v5.23H446.11v-5.23c6.44,0,7.56-4.41,7.56-17.19V18c-2-6.7-4.06-8-7.56-8V4.82h17l24.29,118.62h.21V27.25c0-12.79-1.12-17.19-7.56-17.19V4.82h18.27Z"/></g></g></svg>