<svg xmlns="http://www.w3.org/2000/svg" viewBox="0 0 48.68 20.84"><defs><style>.cls-1{fill:blue;}.cls-2{fill:#fff;}</style></defs><title>Asset 7</title><g id="Layer_2" data-name="Layer 2"><g id="Layer_2-2" data-name="Layer 2"><rect class="cls-1" width="48.68" height="20.84" rx="5.67"/><path class="cls-2" d="M12.4,12.61H9.29L8.56,14.8H7l3-8.46h1.7l3,8.46H13.11ZM9.64,11.45h2.41L10.9,7.93h-.1Z"/><path class="cls-2" d="M17.6,13.78h-.1v1H16.1V5.92h1.45V9.41h.1a2.09,2.09,0,0,1,2-1.12c1.62,0,2.63,1.26,2.63,3.31s-1,3.3-2.63,3.3A2.15,2.15,0,0,1,17.6,13.78Zm-.07-2.18c0,1.29.62,2.1,1.61,2.1s1.6-.79,1.6-2.1-.61-2.1-1.6-2.1S17.53,10.3,17.53,11.6Z"/><path class="cls-2" d="M23.37,11.59c0-2.06,1.18-3.32,3.09-3.32s3.08,1.25,3.08,3.32-1.17,3.34-3.08,3.34S23.37,13.67,23.37,11.59Zm4.67,0c0-1.35-.58-2.14-1.58-2.14s-1.6.79-1.6,2.14.58,2.14,1.6,2.14S28,13,28,11.6Z"/><path class="cls-2" d="M36.58,14.8h-1.4v-1h-.1a1.9,1.9,0,0,1-1.92,1.15,2.11,2.11,0,0,1-2.22-2.38V8.39H32.4V12.2c0,1,.4,1.48,1.27,1.48a1.38,1.38,0,0,0,1.46-1.55V8.39h1.45Z"/><path class="cls-2" d="M40.27,6.82V8.43h1.37V9.57H40.27v3.18c0,.64.27.93.88.93a3.58,3.58,0,0,0,.49,0v1.11a4.19,4.19,0,0,1-.76.07c-1.47,0-2.06-.5-2.06-1.73V9.57h-1V8.43h1V6.82Z"/></g></g></svg>