<svg xmlns="http://www.w3.org/2000/svg" viewBox="0 0 48.68 20.84"><defs><style>.cls-1{fill:blue;}.cls-2{fill:#fff;}</style></defs><title>Asset 6</title><g id="Layer_2" data-name="Layer 2"><g id="Layer_2-2" data-name="Layer 2"><rect class="cls-1" width="48.68" height="20.84" rx="5.67"/><path class="cls-2" d="M7.55,10.42C7.55,7.68,9,6,11.43,6A3.41,3.41,0,0,1,15,9H13.52a2.06,2.06,0,0,0-2.09-1.69C10,7.29,9.1,8.5,9.1,10.42s.89,3.13,2.34,3.13A2,2,0,0,0,13.53,12H15a3.33,3.33,0,0,1-3.58,2.87C9,14.86,7.55,13.16,7.55,10.42Z"/><path class="cls-2" d="M22.12,14.65h-1.4v-1h-.1a1.9,1.9,0,0,1-1.92,1.15,2.11,2.11,0,0,1-2.22-2.38V8.24h1.45v3.81c0,1,.41,1.48,1.27,1.48A1.37,1.37,0,0,0,20.66,12V8.24h1.46Z"/><path class="cls-2" d="M23.9,8.24h1.4v1h.1a1.69,1.69,0,0,1,1.69-1.1,2.52,2.52,0,0,1,.6.06V9.52A3.32,3.32,0,0,0,27,9.44a1.47,1.47,0,0,0-1.6,1.49v3.72H23.9Z"/><path class="cls-2" d="M32.27,14.65h-1.6L28.39,8.24h1.55l1.49,5h.1l1.47-5h1.53Z"/><path class="cls-2" d="M41.06,12.9a2.65,2.65,0,0,1-2.85,1.88c-1.88,0-3-1.26-3-3.31s1.15-3.35,3-3.35,2.92,1.21,2.92,3.22v.47H36.65v.07a1.6,1.6,0,0,0,1.6,1.77,1.42,1.42,0,0,0,1.43-.75Zm-4.41-2.06h3a1.46,1.46,0,0,0-1.48-1.59A1.55,1.55,0,0,0,36.65,10.84Z"/></g></g></svg>