<svg xmlns="http://www.w3.org/2000/svg" viewBox="0 0 74.22 20.84"><defs><style>.cls-1{fill:blue;}.cls-2{fill:#fff;}</style></defs><title>Asset 8</title><g id="Layer_2" data-name="Layer 2"><g id="Layer_2-2" data-name="Layer 2"><rect class="cls-1" width="74.22" height="20.84" rx="5.67"/><path class="cls-2" d="M16,15V9H16l-2.33,5.73H12.54L10.2,9h-.08v6H8.71V6.5h1.77L13,12.78h.11L15.67,6.5h1.77V15Z"/><path class="cls-2" d="M19,13.14c0-1.15.87-1.82,2.43-1.91l1.65-.1v-.55c0-.64-.42-1-1.21-1s-1.12.24-1.25.68H19.26c.12-1.12,1.18-1.83,2.71-1.83s2.57.8,2.57,2.15V15h-1.4v-.88H23a2.12,2.12,0,0,1-1.9,1A1.92,1.92,0,0,1,19,13.14Zm4.08-.53v-.53l-1.45.1c-.81.06-1.19.36-1.19.89s.46.87,1.11.87A1.4,1.4,0,0,0,23.1,12.61Z"/><path class="cls-2" d="M26.28,8.55h1.4v1h.1a1.91,1.91,0,0,1,1.91-1.15,2.08,2.08,0,0,1,2.21,2.38V15H30.44V11.15c0-1-.41-1.49-1.29-1.49a1.38,1.38,0,0,0-1.41,1.56V15H26.28Z"/><path class="cls-2" d="M33.49,6.62a.87.87,0,1,1,.87.86A.86.86,0,0,1,33.49,6.62Zm.15,1.93h1.44V15H33.64Z"/><path class="cls-2" d="M37.35,9.72H36.3V8.59h1.05V7.92C37.35,6.64,38,6,39.43,6a4.66,4.66,0,0,1,.8.06v1a3.1,3.1,0,0,0-.49,0c-.69,0-1,.3-1,.91v.59h1.4V9.72H38.8V15H37.35Z"/><path class="cls-2" d="M46.9,13.2a2.65,2.65,0,0,1-2.85,1.88c-1.89,0-3-1.25-3-3.3s1.15-3.35,3-3.35S47,9.64,47,11.65v.46H42.48v.08A1.61,1.61,0,0,0,44.09,14a1.42,1.42,0,0,0,1.43-.75Zm-4.41-2h3A1.46,1.46,0,0,0,44,9.56,1.55,1.55,0,0,0,42.49,11.15Z"/><path class="cls-2" d="M50.84,8.43c1.52,0,2.48.67,2.58,1.82H52.06c-.11-.45-.53-.74-1.21-.74s-1.16.32-1.16.79.3.6,1,.75l1.13.25c1.22.28,1.79.8,1.79,1.75,0,1.22-1.13,2-2.73,2s-2.61-.69-2.72-1.84h1.44a1.22,1.22,0,0,0,1.31.77c.74,0,1.25-.34,1.25-.82s-.28-.6-.89-.74l-1.14-.27c-1.23-.28-1.81-.84-1.81-1.8C48.27,9.23,49.33,8.43,50.84,8.43Z"/><path class="cls-2" d="M56.9,7V8.59h1.37V9.72H56.9v3.19c0,.64.27.93.88.93a3.79,3.79,0,0,0,.49,0v1.11a4.19,4.19,0,0,1-.76.07c-1.47,0-2.06-.5-2.06-1.73V9.72h-1V8.59h1V7Z"/><path class="cls-2" d="M59.35,11.75c0-2.06,1.18-3.32,3.08-3.32s3.08,1.25,3.08,3.32-1.16,3.33-3.08,3.33S59.35,13.83,59.35,11.75Zm4.67,0c0-1.36-.58-2.14-1.59-2.14s-1.59.78-1.59,2.14.58,2.14,1.59,2.14S64,13.11,64,11.76Z"/></g></g></svg>