<svg xmlns="http://www.w3.org/2000/svg" viewBox="0 0 154.63 68.67"><defs><style>.cls-1{fill:blue;}.cls-2{fill:#fff;}</style></defs><title>Asset 24</title><g id="Layer_2" data-name="Layer 2"><g id="Layer_2-2" data-name="Layer 2"><rect class="cls-1" width="154.63" height="68.67" rx="5.67"/><path class="cls-2" d="M10.15,14.52H8.64V6.07h3.43A2.58,2.58,0,0,1,15,8.7a2.45,2.45,0,0,1-1.6,2.41l1.85,3.41H13.48l-1.66-3.18H10.15Zm0-4.36h1.74A1.34,1.34,0,0,0,13.4,8.73a1.38,1.38,0,0,0-1.54-1.44H10.15Z"/><path class="cls-2" d="M22,12.77a2.64,2.64,0,0,1-2.84,1.88c-1.89,0-3-1.25-3-3.3S17.28,8,19.14,8s2.92,1.22,2.92,3.23v.46H17.58v.08a1.61,1.61,0,0,0,1.61,1.76,1.42,1.42,0,0,0,1.43-.75Zm-4.4-2.06h3a1.47,1.47,0,0,0-1.48-1.59A1.54,1.54,0,0,0,17.59,10.71Z"/><path class="cls-2" d="M25.94,8c1.52,0,2.48.67,2.58,1.83H27.16c-.11-.45-.54-.75-1.22-.75s-1.16.32-1.16.8.31.59.95.74l1.13.26c1.23.28,1.8.8,1.8,1.74,0,1.23-1.13,2-2.73,2S23.32,14,23.21,12.8h1.43c.14.48.6.77,1.32.77s1.24-.33,1.24-.82-.27-.6-.88-.74l-1.14-.26c-1.23-.28-1.81-.84-1.81-1.8C23.37,8.8,24.43,8,25.94,8Z"/><path class="cls-2" d="M35.68,12.77a2.64,2.64,0,0,1-2.85,1.88c-1.88,0-3-1.25-3-3.3S31,8,32.82,8s2.93,1.22,2.93,3.23v.46H31.27v.08a1.61,1.61,0,0,0,1.61,1.76,1.43,1.43,0,0,0,1.43-.75Zm-4.4-2.06h3a1.46,1.46,0,0,0-1.47-1.59A1.54,1.54,0,0,0,31.28,10.71Z"/><path class="cls-2" d="M36.85,12.7c0-1.14.87-1.82,2.43-1.91l1.65-.09v-.56c0-.63-.42-1-1.2-1s-1.13.24-1.26.68H37.09C37.21,8.71,38.27,8,39.8,8s2.57.8,2.57,2.15v4.38H41v-.88h-.1a2.12,2.12,0,0,1-1.9,1A1.92,1.92,0,0,1,36.85,12.7Zm4.08-.53v-.52l-1.44.1c-.82.05-1.2.35-1.2.88s.46.88,1.11.88A1.41,1.41,0,0,0,40.93,12.17Z"/><path class="cls-2" d="M44.11,8.12h1.4v1h.1A1.71,1.71,0,0,1,47.31,8a3.18,3.18,0,0,1,.6.06V9.39a3.39,3.39,0,0,0-.74-.08,1.46,1.46,0,0,0-1.6,1.49v3.72H44.11Z"/><path class="cls-2" d="M53.1,10.26a1.34,1.34,0,0,0-1.42-1.08c-1,0-1.58.79-1.58,2.12s.59,2.15,1.58,2.15a1.3,1.3,0,0,0,1.42-1h1.38a2.54,2.54,0,0,1-2.79,2.23c-1.93,0-3.06-1.25-3.06-3.35S49.76,8,51.68,8a2.55,2.55,0,0,1,2.8,2.27Z"/><path class="cls-2" d="M55.93,5.64h1.43V9.15h.1A2,2,0,0,1,59.41,8a2.11,2.11,0,0,1,2.2,2.39v4.13H60.16V10.73c0-1-.45-1.49-1.29-1.49a1.41,1.41,0,0,0-1.49,1.56v3.72H55.93Z"/><path class="cls-2" d="M69,14.52l-3-8.45h1.67l2.12,6.72H70l2.11-6.72h1.61l-2.92,8.45Z"/><path class="cls-2" d="M82.5,10.29c0,2.73-1.53,4.44-4,4.44s-4-1.71-4-4.44,1.55-4.43,4-4.43S82.5,7.56,82.5,10.29Zm-6.45,0c0,1.91.93,3.14,2.45,3.14S81,12.2,81,10.29,80,7.16,78.5,7.16,76.05,8.37,76.05,10.29Z"/><path class="cls-2" d="M89.62,14.52H84.23V6.07h1.51v7.16h3.88Z"/><path class="cls-2" d="M92.55,11.47a2,2,0,0,0,3.93,0V6.07H98v5.54c0,1.84-1.34,3.12-3.47,3.12S91,13.45,91,11.61V6.07h1.51Z"/><path class="cls-2" d="M107.4,14.52v-6h-.09L105,14.26H103.9l-2.34-5.73h-.08v6h-1.41V6.07h1.77l2.54,6.27h.11L107,6.07h1.77v8.45Z"/><path class="cls-2" d="M116.36,14.52h-5.47V6.07h5.47V7.34h-4V9.63h3.74v1.2H112.4v2.42h4Z"/><path class="cls-2" d="M123.32,7.55h-.1L121.11,9V7.62l2.21-1.55h1.51v8.45h-1.51Z"/><path class="cls-2" d="M13.38,26.34H10.26l-.72,2.18H8l3-8.45h1.7l3,8.45H14.09Zm-2.76-1.17H13l-1.14-3.52h-.1Z"/><path class="cls-2" d="M16.9,26.19h1.42a1.5,1.5,0,0,0,1.6,1.31,1.59,1.59,0,0,0,1.63-1.73A1.56,1.56,0,0,0,20,24.09,1.67,1.67,0,0,0,18.4,25H17l.46-4.91h5.07v1.24H18.67l-.24,2.47h.1A2.16,2.16,0,0,1,20.39,23,2.6,2.6,0,0,1,23,25.75a2.88,2.88,0,0,1-3.08,3A2.76,2.76,0,0,1,16.9,26.19Z"/><path class="cls-2" d="M28,28.52V20.07h3.54c1.6,0,2.57.8,2.57,2.11A1.85,1.85,0,0,1,32.58,24v.1a2,2,0,0,1,1.92,2c0,1.49-1.1,2.4-2.9,2.4Zm1.51-4.89H31c1.08,0,1.64-.42,1.64-1.19s-.53-1.2-1.44-1.2H29.49Zm1.76,3.71c1.12,0,1.71-.46,1.71-1.33s-.61-1.31-1.77-1.31h-1.7v2.64Z"/><path class="cls-2" d="M35.68,25.32c0-2.07,1.17-3.33,3.08-3.33s3.08,1.26,3.08,3.33-1.17,3.33-3.08,3.33S35.68,27.4,35.68,25.32Zm4.67,0c0-1.35-.58-2.14-1.59-2.14s-1.6.79-1.6,2.14.58,2.14,1.6,2.14S40.35,26.68,40.35,25.32Z"/><path class="cls-2" d="M43,25.32C43,23.25,44.17,22,46.07,22s3.08,1.26,3.08,3.33S48,28.65,46.07,28.65,43,27.4,43,25.32Zm4.67,0c0-1.35-.58-2.14-1.59-2.14s-1.59.79-1.59,2.14.58,2.14,1.59,2.14S47.66,26.68,47.66,25.32Z"/><path class="cls-2" d="M54.6,22.12h1.68l-2.55,2.75,2.73,3.65H54.7l-2.05-2.76-.52.51v2.25H50.68V19.64h1.45v5.1h.1Z"/><path class="cls-2" d="M57.64,19.64h1.45v8.88H57.64Z"/><path class="cls-2" d="M66.48,26.77a2.65,2.65,0,0,1-2.85,1.88c-1.89,0-3-1.25-3-3.3s1.15-3.36,3-3.36,2.92,1.22,2.92,3.23v.46H62.07v.08a1.6,1.6,0,0,0,1.6,1.76,1.42,1.42,0,0,0,1.43-.75Zm-4.41-2.06h3a1.46,1.46,0,0,0-1.48-1.59A1.55,1.55,0,0,0,62.07,24.71Z"/><path class="cls-2" d="M69.91,20.55v1.61h1.37v1.13H69.91v3.19c0,.64.27.92.88.92a3.58,3.58,0,0,0,.49,0v1.12a4.26,4.26,0,0,1-.76.06c-1.47,0-2-.49-2-1.73V23.29h-1V22.16h1V20.55Z"/><path class="cls-2" d="M77.91,43.88v6.79l0,1.19,1.3-1.46L80.57,49a.59.59,0,0,1,.43-.18.56.56,0,0,1,.57.58.59.59,0,0,1-.19.43l-3.62,3.63a.63.63,0,0,1-.45.18.62.62,0,0,1-.44-.18l-3.62-3.63a.59.59,0,0,1-.19-.43.56.56,0,0,1,.57-.58.59.59,0,0,1,.43.18l1.39,1.38,1.31,1.46,0-1.19V43.88a.6.6,0,1,1,1.19,0Z"/></g></g></svg>