<svg xmlns="http://www.w3.org/2000/svg" viewBox="0 0 60.84 20.84"><defs><style>.cls-1{fill:blue;}.cls-2{fill:#fff;}</style></defs><title>Asset 9</title><g id="Layer_2" data-name="Layer 2"><g id="Layer_2-2" data-name="Layer 2"><rect class="cls-1" width="60.84" height="20.84" rx="5.67"/><path class="cls-2" d="M13.56,5.47A2.7,2.7,0,0,1,16.4,8.32a2.72,2.72,0,0,1-2.9,2.81H11.66v2.8H10.15V5.47Zm-1.9,4.44h1.5a1.51,1.51,0,0,0,1.71-1.59,1.5,1.5,0,0,0-1.71-1.61h-1.5Z"/><path class="cls-2" d="M17.91,7.52h1.4v1h.1a1.71,1.71,0,0,1,1.7-1.1,2.52,2.52,0,0,1,.6.06V8.8A3.39,3.39,0,0,0,21,8.72a1.46,1.46,0,0,0-1.6,1.49v3.72H17.91Z"/><path class="cls-2" d="M22.43,10.72c0-2.06,1.17-3.32,3.08-3.32s3.08,1.25,3.08,3.32-1.17,3.34-3.08,3.34S22.43,12.8,22.43,10.72Zm4.67,0c0-1.35-.58-2.14-1.59-2.14s-1.6.79-1.6,2.14.58,2.14,1.6,2.14S27.1,12.08,27.1,10.73Z"/><path class="cls-2" d="M31.52,14.17c0,1.32-.72,1.94-2.16,1.94H29V15h.19c.64,0,.87-.24.87-.83V7.52h1.45ZM29.93,5.59a.87.87,0,1,1,.87.86A.87.87,0,0,1,29.93,5.59Z"/><path class="cls-2" d="M38.87,12.18A2.64,2.64,0,0,1,36,14.06c-1.89,0-3-1.26-3-3.31S34.16,7.4,36,7.4s2.93,1.21,2.93,3.22v.47H34.46v.07a1.61,1.61,0,0,0,1.61,1.77,1.42,1.42,0,0,0,1.43-.75Zm-4.4-2.06h3A1.46,1.46,0,0,0,36,8.53,1.54,1.54,0,0,0,34.47,10.12Z"/><path class="cls-2" d="M44.55,9.66a1.33,1.33,0,0,0-1.41-1.07c-1,0-1.59.79-1.59,2.12s.6,2.15,1.59,2.15a1.3,1.3,0,0,0,1.41-1h1.38a2.53,2.53,0,0,1-2.79,2.23c-1.92,0-3.06-1.25-3.06-3.35S41.21,7.4,43.14,7.4a2.54,2.54,0,0,1,2.79,2.26Z"/><path class="cls-2" d="M49.31,6V7.56h1.38V8.7H49.31v3.18c0,.64.27.93.88.93a3.84,3.84,0,0,0,.5,0v1.11a4.31,4.31,0,0,1-.77.07c-1.47,0-2.05-.5-2.05-1.73V8.7h-1V7.56h1V6Z"/></g></g></svg>