<svg xmlns="http://www.w3.org/2000/svg" viewBox="0 0 74.42 20.84"><defs><style>.cls-1{fill:blue;}.cls-2{fill:#fff;}</style></defs><title>Asset 10</title><g id="Layer_2" data-name="Layer 2"><g id="Layer_2-2" data-name="Layer 2"><rect class="cls-1" width="74.42" height="20.84" rx="5.67"/><path class="cls-2" d="M12.23,14.8H10.72V6.34h3.43A2.58,2.58,0,0,1,17,9a2.46,2.46,0,0,1-1.59,2.42L17.3,14.8H15.57l-1.66-3.18H12.23Zm0-4.37H14A1.34,1.34,0,0,0,15.49,9a1.38,1.38,0,0,0-1.55-1.43H12.23Z"/><path class="cls-2" d="M24.08,13.05a2.65,2.65,0,0,1-2.85,1.88c-1.88,0-3-1.26-3-3.31s1.15-3.35,3-3.35,2.93,1.21,2.93,3.22V12H19.67V12a1.6,1.6,0,0,0,1.6,1.77,1.42,1.42,0,0,0,1.43-.75ZM19.67,11h3A1.46,1.46,0,0,0,21.22,9.4,1.55,1.55,0,0,0,19.67,11Z"/><path class="cls-2" d="M28,8.27c1.53,0,2.48.67,2.59,1.82H29.24c-.1-.45-.53-.74-1.21-.74s-1.16.32-1.16.8.3.59.95.74l1.13.25c1.22.28,1.79.8,1.79,1.75,0,1.22-1.13,2-2.73,2s-2.61-.69-2.72-1.85h1.44c.14.48.59.77,1.32.77s1.24-.34,1.24-.82-.28-.6-.89-.74L27.27,12c-1.23-.28-1.81-.85-1.81-1.81C25.46,9.07,26.51,8.27,28,8.27Z"/><path class="cls-2" d="M37.77,13.05a2.66,2.66,0,0,1-2.85,1.88c-1.89,0-3-1.26-3-3.31s1.15-3.35,3-3.35,2.92,1.21,2.92,3.22V12H33.36V12A1.6,1.6,0,0,0,35,13.8a1.42,1.42,0,0,0,1.43-.75ZM33.36,11h3A1.46,1.46,0,0,0,34.9,9.4,1.55,1.55,0,0,0,33.36,11Z"/><path class="cls-2" d="M38.93,13c0-1.15.88-1.82,2.44-1.91L43,11v-.55c0-.64-.42-1-1.21-1s-1.12.25-1.26.68H39.18c.12-1.11,1.18-1.83,2.7-1.83s2.57.8,2.57,2.15V14.8h-1.4v-.88H43a2.1,2.1,0,0,1-1.89,1A1.93,1.93,0,0,1,38.93,13ZM43,12.45v-.52l-1.45.1c-.81.05-1.19.35-1.19.88s.46.87,1.1.87A1.41,1.41,0,0,0,43,12.45Z"/><path class="cls-2" d="M46.2,8.39h1.4v1h.1a1.7,1.7,0,0,1,1.69-1.1,2.68,2.68,0,0,1,.61.06V9.67a3.42,3.42,0,0,0-.75-.08,1.46,1.46,0,0,0-1.6,1.49V14.8H46.2Z"/><path class="cls-2" d="M55.18,10.53a1.33,1.33,0,0,0-1.41-1.07c-1,0-1.59.79-1.59,2.12s.6,2.15,1.59,2.15a1.3,1.3,0,0,0,1.41-1h1.39a2.55,2.55,0,0,1-2.79,2.23c-1.93,0-3.07-1.25-3.07-3.35s1.13-3.31,3.06-3.31a2.56,2.56,0,0,1,2.8,2.26Z"/><path class="cls-2" d="M58,5.92h1.43V9.43h.11a2,2,0,0,1,1.94-1.15,2.11,2.11,0,0,1,2.21,2.39V14.8H62.24V11c0-1-.44-1.5-1.29-1.5a1.41,1.41,0,0,0-1.48,1.57V14.8H58Z"/></g></g></svg>